<svg width="30" height="30" viewBox="0 0 30 30" fill="none" xmlns="http://www.w3.org/2000/svg">
<g clipPath="url(#clip0_329_105)">
<path d="M23.317 7.60293C21.7873 6.92338 20.147 6.42272 18.4319 6.13597C18.4007 6.13043 18.3695 6.14426 18.3534 6.17193C18.1424 6.5352 17.9087 7.00913 17.7451 7.38163C15.9004 7.11425 14.0652 7.11425 12.2583 7.38163C12.0946 7.00085 11.8525 6.5352 11.6406 6.17193C11.6245 6.14519 11.5933 6.13136 11.5621 6.13597C9.84791 6.4218 8.20756 6.92246 6.67694 7.60293C6.66368 7.60846 6.65233 7.61769 6.64479 7.62967C3.53339 12.1301 2.68105 16.52 3.09918 20.8554C3.10107 20.8766 3.11337 20.8969 3.1304 20.9098C5.18321 22.3693 7.17171 23.2554 9.12328 23.8428C9.15451 23.852 9.18761 23.8409 9.20748 23.816C9.66913 23.2057 10.0806 22.5621 10.4335 21.8853C10.4543 21.8456 10.4344 21.7986 10.3919 21.7829C9.73913 21.5432 9.1176 21.2509 8.51973 20.919C8.47244 20.8923 8.46865 20.8268 8.51216 20.7954C8.63797 20.7041 8.76382 20.6092 8.88395 20.5133C8.90569 20.4958 8.93598 20.4921 8.96153 20.5031C12.8893 22.2394 17.1415 22.2394 21.023 20.5031C21.0485 20.4912 21.0788 20.4949 21.1015 20.5124C21.2216 20.6083 21.3475 20.7041 21.4742 20.7954C21.5177 20.8268 21.5149 20.8923 21.4676 20.919C20.8697 21.2574 20.2482 21.5432 19.5945 21.782C19.552 21.7977 19.533 21.8456 19.5538 21.8853C19.9143 22.5611 20.3258 23.2047 20.7789 23.8151C20.7978 23.8409 20.8319 23.852 20.8631 23.8428C22.8241 23.2554 24.8126 22.3693 26.8654 20.9098C26.8834 20.8969 26.8948 20.8775 26.8967 20.8563C27.3971 15.8441 26.0585 11.4902 23.3482 7.63058C23.3416 7.61769 23.3303 7.60846 23.317 7.60293ZM11.02 18.2156C9.8375 18.2156 8.86313 17.1645 8.86313 15.8736C8.86313 14.5827 9.8186 13.5316 11.02 13.5316C12.2309 13.5316 13.1958 14.592 13.1769 15.8736C13.1769 17.1645 12.2214 18.2156 11.02 18.2156ZM18.9947 18.2156C17.8123 18.2156 16.8379 17.1645 16.8379 15.8736C16.8379 14.5827 17.7933 13.5316 18.9947 13.5316C20.2056 13.5316 21.1705 14.592 21.1516 15.8736C21.1516 17.1645 20.2056 18.2156 18.9947 18.2156Z" fill="#757895"/>
</g>
<defs>
<clipPath id="clip0_329_105">
<rect width="24" height="18" fill="white" transform="translate(3 6)"/>
</clipPath>
</defs>
</svg>
