<svg width="30" height="30" viewBox="0 0 30 30" fill="none" xmlns="http://www.w3.org/2000/svg">
<path fillRule="evenodd" clipRule="evenodd" d="M6 10C6 7.79086 7.79086 6 10 6H20C22.2091 6 24 7.79086 24 10V20C24 22.2091 22.2091 24 20 24H10C7.79086 24 6 22.2091 6 20V10ZM15 13C13.8954 13 13 13.8954 13 15C13 16.1046 13.8954 17 15 17C16.1046 17 17 16.1046 17 15C17 13.8954 16.1046 13 15 13ZM11 15C11 12.7909 12.7909 11 15 11C17.2091 11 19 12.7909 19 15C19 17.2091 17.2091 19 15 19C12.7909 19 11 17.2091 11 15ZM20.5 10.5C21.0523 10.5 21.5 10.0523 21.5 9.5C21.5 8.94772 21.0523 8.5 20.5 8.5C19.9477 8.5 19.5 8.94772 19.5 9.5C19.5 10.0523 19.9477 10.5 20.5 10.5Z" fill="#757895"/>
</svg>
