<svg width="30" height="30" viewBox="0 0 30 30" fill="none" xmlns="http://www.w3.org/2000/svg">
<path fillRule="evenodd" clipRule="evenodd" d="M5.51239 13.7489C11.418 11.2087 15.3559 9.534 17.3263 8.72489C22.9521 6.4147 24.1211 6.01339 24.883 6.00014C25.0506 5.99723 25.4253 6.03823 25.668 6.23267C25.873 6.39685 25.9294 6.61863 25.9563 6.77429C25.9833 6.92995 26.0169 7.28455 25.9902 7.56163C25.6854 10.7241 24.3662 18.3986 23.6951 21.9406C23.4111 23.4394 22.852 23.9419 22.3107 23.9911C21.1343 24.098 20.2409 23.2235 19.1015 22.4861C17.3186 21.3323 16.3113 20.614 14.5807 19.488C12.5806 18.1868 13.8772 17.4716 15.017 16.3027C15.3153 15.9969 20.4986 11.3423 20.5989 10.92C20.6115 10.8672 20.6231 10.6704 20.5046 10.5664C20.3862 10.4625 20.2114 10.498 20.0852 10.5263C19.9064 10.5664 17.0581 12.425 11.5404 16.1022C10.7319 16.6503 9.99958 16.9174 9.34347 16.9034C8.62016 16.888 7.2288 16.4996 6.19447 16.1677C4.92583 15.7606 3.91753 15.5453 4.00533 14.8539C4.05106 14.4937 4.55341 14.1254 5.51239 13.7489Z" fill="#757895"/>
</svg>
