<svg width="30" height="30" viewBox="0 0 30 30" fill="none" xmlns="http://www.w3.org/2000/svg">
<path fillRule="evenodd" clipRule="evenodd" d="M22.9999 11.0018C22.9999 11.0012 22.9999 11.0006 22.9999 11C22.9999 10.9999 22.9999 10.9999 22.9999 10.9998L24.875 8.97672C25.1806 8.64695 24.9057 8.11563 24.46 8.17458L22.1108 8.48528C21.3775 7.57926 20.2563 7 18.9999 7C16.7908 7 14.9999 8.79086 14.9999 11C14.9999 11.5274 15.102 12.031 15.2875 12.4921C12.2911 12.422 9.08285 11.8291 7.4608 8.6154C7.26009 8.21773 6.68469 8.1947 6.55692 8.62143C5.38319 12.5414 7.4488 17.6347 11.9997 19C10.8644 20.11 7.94607 20.4114 5.55785 20.1927C5.09312 20.1502 4.80137 20.6796 5.16075 20.9773C7.16328 22.6361 9.94066 23 12.4998 23C18.9991 23 23.4989 17.501 22.9999 11.0018Z" fill="#757895"/>
</svg>
